<?xml version="1.0" encoding="utf-8"?>
<!-- Generator: Adobe Illustrator 26.3.0, SVG Export Plug-In . SVG Version: 6.00 Build 0)  -->
<svg version="1.1" id="Layer_1" xmlns:svgjs="http://svgjs.dev/svgjs"
	 xmlns="http://www.w3.org/2000/svg" xmlns:xlink="http://www.w3.org/1999/xlink" x="0px" y="0px" viewBox="0 0 1000 1000"
	 style="enable-background:new 0 0 1000 1000;" xml:space="preserve">
<style type="text/css">
	.st0{clip-path:url(#SVGID_00000047739854735575987630000002126863425783282348_);}
	.st1{fill:#E0FFF7;}
	.st2{fill:#384C46;}
	.st3{fill:#3C564E;}
	.st4{fill:#384D46;}
	.st5{fill:#3D564E;}
	.st6{fill:#3C574F;}
	.st7{fill:#3A8068;}
	.st8{fill:#3A8069;}
	.st9{fill:#3D574E;}
	.st10{fill:#3C564F;}
	.st11{fill:#4CCB9F;}
	.st12{fill:#4DCCA0;}
	.st13{fill:#4DCC9F;}
	.st14{fill:#3B7F68;}
	.st15{fill:#80FED3;}
	.st16{fill:#7FFED3;}
	.st17{fill:#FECCD1;}
	.st18{fill:#9EFEDE;}
	.st19{fill:#BAF8E3;}
	.st20{fill:#4DCB9F;}
	.st21{fill:#9DFEDD;}
	.st22{fill:#FEFEFE;}
	.st23{fill:#303F46;}
	.st24{fill:#303E46;}
</style>
<g>
	<defs>
		<path id="SVGID_1_" d="M300,0h400c165.7,0,300,134.3,300,300v400c0,165.7-134.3,300-300,300H300C134.3,1000,0,865.7,0,700V300
			C0,134.3,134.3,0,300,0z"/>
	</defs>
	<clipPath id="SVGID_00000153673888331224487420000010289758568387601083_">
		<use xlink:href="#SVGID_1_"  style="overflow:visible;"/>
	</clipPath>
	<g style="clip-path:url(#SVGID_00000153673888331224487420000010289758568387601083_);">
		<rect class="st1" width="1000" height="1000"/>
		<g transform="matrix(1.5625,0,0,1.5625,100,100)">
			<g>
				<path class="st2" d="M407.9,428.9c-94,0-187.9,0-281.9,0c-1.1-1.2-1.5-2.6-1.5-4.1c0.4-7.3-1.5-14.8,1.3-22
					c1.6-1.4,3.6-1.5,5.6-1.5c6.9,0,13.8-0.2,20.6,0.1c17-0.2,34-0.2,51,0c25.3-0.2,50.6-0.2,76,0c28.9-0.3,57.9-0.1,86.8-0.1
					c11.6,0,23.3,0,34.9,0c2.5,0,5-0.2,7.2,1.3c1.3,1.3,1.5,2.9,1.6,4.5c0.2,5.7,0.1,11.5,0,17.2C409.4,426,409.1,427.6,407.9,428.9
					z"/>
				<path class="st3" d="M407.9,121.1c0,8.6,0,17.3,0.1,25.9c-0.2,0.2-0.5,0.4-0.7,0.7c-8.5,1.9-17.1,0.6-25.6,0.9
					c-25.5,0.2-51,0.2-76.5,0c-8.7,0.2-17.4,0.2-26.2,0c-6.5,0.2-13.1,0.1-19.6,0.1c-2,0-3.9,0-5.6-1.3c-2.1-8.8-2.5-17.5,0.2-26.2
					C305.3,121.1,356.6,121.1,407.9,121.1z"/>
				<path class="st4" d="M75,352c-8.6,0-17.3,0-25.9,0c0-42.6,0-85.3,0-127.9c8.6,0,17.3,0,25.9-0.1c0.2,0.2,0.5,0.5,0.7,0.7
					c1.2,2.2,1,4.5,1,6.8c0,37.6,0,75.3,0,112.9c0,2.3,0.2,4.7-1,6.9C75.5,351.5,75.3,351.8,75,352z"/>
				<path class="st5" d="M484.9,352c-8.6,0-17.3,0-25.9,0.1c-0.2-0.2-0.4-0.5-0.7-0.7c-1.9-8.5-0.6-17.1-0.9-25.6
					c-0.3-32-0.1-64.1-0.1-96.1c0-1.7,0.1-3.3,0.9-4.8c0.2-0.2,0.4-0.5,0.7-0.7c8.7,0,17.3,0,26,0
					C484.9,266.7,484.9,309.3,484.9,352z"/>
				<path class="st3" d="M126,147c0-8.6,0-17.3,0.1-25.9c34,0,68,0,102,0c0.8,0.9,1.4,1.9,1.4,3.1c-0.2,7.7,1.6,15.5-1.1,23.1
					c-1.5,1.2-3.4,1.3-5.2,1.3c-23.5,0-47.1,0.2-70.6-0.1c-8.6-0.3-17.2,1.1-25.8-0.9C126.5,147.5,126.2,147.2,126,147z"/>
				<path class="st6" d="M228,146.9c0-8.6,0-17.2,0-25.8c8.7,0,17.3,0,26,0c0,8.6,0,17.2,0,25.8c-0.8,1-1.9,1.4-3,1.5
					c-6.6,0.4-13.3,0.4-19.9,0C229.9,148.4,228.8,147.9,228,146.9z"/>
				<path class="st7" d="M408,403c-43,0-86-0.1-129-0.1c-0.8-0.9-1.4-1.9-1.4-3.1c0.2-7.7-1.7-15.5,1.2-23.1
					c2.2-1.6,4.8-1.3,7.2-1.3c38.2,0,76.4,0,114.7,0c2.5,0,5-0.2,7.2,1.3c1,1,1.5,2.3,1.4,3.6C409,387.9,411.1,395.6,408,403
					L408,403z"/>
				<path class="st7" d="M152,402.9c-8.7,0-17.4,0.1-26.1,0.1c0,0,0.1,0,0.1,0c-2.6-4.1-1.4-8.7-1.5-13.1
					c-0.3-12.8,1.3-11.2-11.5-11.5c-4.4-0.1-9,1.2-13.1-1.5l0.1,0.1c-1.5-1.8-1.6-3.9-1.5-6c0.3-6.3-0.9-12.7,0.9-19
					c1.1-1.7,2.8-2.4,4.6-2.4c7.6-0.1,15.2-0.9,22.7,0.7c6.8,0.1,13.6-0.1,20.3,0.1c5.2,0.2,6.4,1.4,6.6,6.6
					c0.2,6.6,0.2,13.2,0,19.8c0.2,6.8,0.1,13.6,0.1,20.4C153.6,399.3,153.5,401.3,152,402.9z"/>
				<path class="st7" d="M279,377.1c0,8.6,0,17.2,0,25.8c-25.3,0-50.6,0-76,0c-0.8-0.9-1.4-1.9-1.4-3.1c0.2-7.7-1.7-15.5,1.2-23.1
					c2-1.5,4.4-1.3,6.7-1.3c20.8,0,41.6,0,62.4,0C274.4,375.4,277,375,279,377.1z"/>
				<path class="st8" d="M203,377.1c0,8.6,0,17.2,0,25.8c-17,0-34,0-51,0c0-8.7,0-17.3,0-26c1.6-1.5,3.6-1.5,5.6-1.5
					c13.3-0.1,26.5-0.1,39.8,0C199.5,375.4,201.5,375.3,203,377.1z"/>
				<path class="st9" d="M433,172c7.3,0,14.6,0.2,21.9,0c3.4-0.1,4.1,1,4.1,4.2c-0.2,16-0.1,31.9-0.1,47.9c0,0,0,0,0,0
					c-0.9,0.8-1.9,1.4-3.1,1.4c-7.6-0.2-15.4,1.6-22.9-1.1c-1.5-1.6-1.5-3.6-1.5-5.6c0-6.8-0.2-13.6,0.1-20.4
					c0.3-8.5-1.1-17.1,0.9-25.6C432.5,172.5,432.8,172.2,433,172z"/>
				<path class="st3" d="M408,147c7.1,0,14.3,0.2,21.4,0c2.8-0.1,3.7,0.8,3.6,3.6c-0.2,7.1,0,14.3,0,21.4c0,0-0.1,0.1-0.1,0.1
					c-1.4,1.3-3.3,1.6-5.1,1.5c-6.7-0.5-13.5,1.4-20-1.4c-2.9-6-1-12.3-1.5-18.5C406.2,151.4,406.2,149,408,147L408,147z"/>
				<path class="st10" d="M75,224c0-15.9,0.1-31.9,0-47.8c0-3.2,0.7-4.3,4.1-4.2c7,0.3,14,0,20.9,0c0.2,0.2,0.4,0.5,0.7,0.7
					c0.8,1.3,0.9,2.8,0.9,4.3c0.1,14.1,0.1,28.2,0,42.3c0,1.3-0.1,2.7-0.6,3.9c-0.3,0.6-0.7,1.1-1.3,1.4
					C91.5,225.8,83.2,226.8,75,224L75,224z"/>
				<path class="st3" d="M100,172c0-7.1,0.2-14.3,0-21.4c-0.1-2.8,0.8-3.7,3.6-3.6c7.5,0.2,14.9,0,22.4,0l0.1,0.1
					c1.6,1.8,1.5,4,1.5,6.1c-0.2,6.1,0.8,12.2-0.7,18.2c-0.3,0.6-0.7,1.1-1.3,1.4C117.1,173.8,108.5,174.9,100,172L100,172z"/>
				<path class="st5" d="M459,352c0,7.1-0.2,14.3,0,21.4c0.1,2.8-0.8,3.7-3.6,3.6c-7.5-0.2-14.9,0-22.4,0c-0.2-0.2-0.4-0.4-0.7-0.7
					c-1.6-7.9-1.2-15.9-0.2-23.9c0.3-0.6,0.8-1,1.3-1.3C442,350.3,450.5,349.1,459,352L459,352z"/>
				<path class="st3" d="M408,403.1c0-8.7-0.1-17.4-0.1-26.1c0.2-0.2,0.5-0.4,0.7-0.6c8.1-1.1,16.2-2.1,24.3,0.6l0.1,0.1
					c0,7.5-0.2,14.9,0,22.4c0.1,2.8-0.8,3.7-3.6,3.6C422.3,402.8,415.1,403,408,403.1z"/>
				<path class="st11" d="M433.1,223.9c8.6,0,17.2,0.1,25.9,0.1c0,33.9-0.1,67.9-0.1,101.8c-3.3,2.7-7.3,1.6-11,1.6
					c-13.4,0.1-13.3,0.1-13.4,13.4c0,3.7,1,7.6-1.5,11l0,0c-4.1,2.8-8.7,1.4-13,1.5c-11.4,0.3-10.2-0.9-10.5,10.5
					c-0.1,4.4,1.3,8.9-1.5,13c0,0,0,0,0,0c-43,0-86,0.1-128.9,0.1c-25.3,0-50.6,0-76,0c-17-0.1-34-0.1-51-0.2c0-7-0.1-14,0-21
					c0.1-3.1-0.9-4.1-4-4c-7.3,0.2-14.6,0-22,0c-2.8-4.3-1.5-9-1.6-13.6c-0.2-11.4,0.9-10.7-10.9-10.8c-3.2,0-6.3,0.1-9.5-0.1
					c-3.6-0.2-5.4-2.1-5.6-5.7c0-0.7,0,0.2,0-0.5c-0.2-30.9-0.1-61.8,0-92.6c0-1.7,0.3-3.3,1.6-4.6l0,0c3.9-2.8,8.4-1.5,12.6-1.6
					c13-0.3,11.7,1.4,11.8-11.8c0.1-10.5,0-21,0-31.5c0-2.5-0.3-5,1.6-7.1l0,0c3.7-2.7,8-1.4,12-1.5c14.1-0.3,12.1,1.6,12.4-12.4
					c0.1-3.7-1.1-7.6,1.6-11c25.3-0.1,50.6-0.2,75.9-0.2c8.7,0,17.3,0,26,0c8.3,0.1,16.7,0.2,25,0.3c1.2,1.1,1.5,2.6,1.5,4
					c-0.3,7,1.4,14.1-1.1,20.9c-2.5,1.9-5.4,1.4-8.2,1.4c-19.6,0-39.3,0-58.9,0c-7.4,0-7.6,0.3-7.7,7.5c0,4.2,0,8.3-0.1,12.5
					c-0.1,3.9-2,5.8-5.9,5.9c-5,0.2-10,0.1-15,0.1c-3.6,0-5.1,1.5-5.1,5.1c0.1,4.7,0.1,9.3,0,14c-0.2,5.5-1.4,6.6-6.9,6.9
					c-4.5,0.2-9,0-13.5,0.1c-3.1,0-4.5,1.5-4.5,4.6c0,21.1,0,42.3,0,63.4c0,3.3,1.4,4.7,4.8,4.8c6,0.2,12-0.7,17.9,0.7
					c0.6,0.3,1.1,0.7,1.4,1.3c1.8,5.9,0.6,11.9,0.9,17.8c0.3,5.5,0.6,6,6,6.1c4,0.1,8,0,12,0.1c6.8,0.2,7.9,1.2,8,7.8
					c0.1,4.3,0.1,8.7,0,13c-0.1,3.6,1.4,5.3,5,5.1c1.5-0.1,3,0,4.5,0c52.2,0,104.5,0,156.7,0c1.2,0,2.3,0,3.5,0
					c5.4-0.2,5.9-0.6,6-6.1c0.1-4.3-0.1-8.7,0.1-13c0.2-5.5,1.4-6.6,7-6.8c4.7-0.2,9.3-0.1,14-0.1c3.6,0,5.1-1.5,5-5.1
					c-0.1-4.3-0.1-8.6,0-13c0-2.2-0.1-4.3,1.1-6.3c2.7-2.2,6-1.3,9.1-1.6c4.6-0.4,10.3,1.9,13.5-1.2c3.4-3.3,0.9-9.2,1.3-13.9
					c0.2-2.8,0-5.6,0.1-8.4c-0.2-15.2-0.1-30.4-0.1-45.6c0-1.3,0.1-2.6,0.5-3.9C432.1,224.8,432.5,224.3,433.1,223.9z"/>
				<path class="st11" d="M305,147.2c25.6,0,51.2,0,76.9-0.1c0.8,0.9,1.5,1.9,1.4,3.1c-0.1,7.3,1.6,14.8-1.2,22
					c-1.6,1.4-3.7,1.4-5.6,1.4c-15,0-30.1,0.2-45.1-0.1c-8.5-0.2-17.1,0.8-25.6-0.6c-0.6-0.3-1.1-0.7-1.4-1.3
					C303.3,163.5,302.1,155.3,305,147.2z"/>
				<path class="st7" d="M381.9,172.1c0-8.3-0.1-16.6-0.1-24.9c8.7,0,17.4,0,26.1,0c0,8.3,0.1,16.6,0.1,24.8
					c-0.2,0.2-0.4,0.4-0.6,0.7c-8.3,1.6-16.5,1.4-24.8,0.1C382.4,172.5,382.2,172.3,381.9,172.1z"/>
				<path class="st12" d="M305,147.2c0,8.2,0,16.5,0,24.7c-0.7,1-1.8,1.4-3,1.5c-6.6,0.4-13.3,0.4-19.9,0c-1.2-0.1-2.3-0.5-3.1-1.5
					c0-8.2,0-16.5,0-24.7C287.7,147.2,296.3,147.2,305,147.2z"/>
				<path class="st4" d="M99.9,377c7.5,0,14.9,0.1,22.4-0.1c2.8-0.1,3.8,0.9,3.8,3.7c-0.1,7.5-0.1,14.9-0.1,22.4
					c-7.5,0-14.9-0.2-22.4-0.1c-2.8,0.1-3.7-0.8-3.6-3.6C100.2,391.9,100,384.5,99.9,377z"/>
				<path class="st2" d="M100,352c0,8.4,0,16.7,0,25.1c-7.1,0-14.3-0.2-21.4-0.1c-2.8,0.1-3.7-0.8-3.6-3.6c0.2-7.1,0-14.3,0-21.4
					c0,0,0.1-0.1,0.1-0.1c4.9-3,10.3-1.2,15.5-1.5C93.7,350.3,97.2,349.5,100,352z"/>
				<path class="st8" d="M100,352c-8.3,0-16.6,0-24.9-0.1c0-42.6,0-85.2,0-127.9c8.3,0,16.7,0,25,0c0,32.2,0.1,64.5-0.1,96.7
					c0,4.1,1.1,5.5,5.3,5.3c5.5-0.3,11,0.1,16.4-0.2c3.6-0.2,4.5,1.2,4.4,4.6c-0.2,7.1,0,14.3,0,21.4
					C117.4,350.4,108.7,350.3,100,352z"/>
				<path class="st8" d="M432.9,351.9c0-7.3,0.2-14.5,0-21.8c-0.1-3.2,0.9-4.3,4.2-4.3c7.3,0.2,14.5,0,21.8,0c0,8.7,0,17.4,0,26.1
					C450.2,351.9,441.6,351.9,432.9,351.9z"/>
				<path class="st8" d="M152.1,147.2c0,7-0.2,14,0,21c0.1,3.1-1,4-4,4c-7.3-0.2-14.7,0-22,0c0-8.3,0-16.6,0-25
					C134.8,147.1,143.5,147.1,152.1,147.2z"/>
				<path class="st8" d="M408.1,171.9c8.3,0.1,16.6,0.1,24.8,0.2c0,8.7,0,17.4,0,26.1c-1.8,1.6-4,1.6-6.1,1.4
					c-6.3-0.4-12.8,1.4-18.9-1.4c-2.8-5.3-1.2-11-1.4-16.5c-0.2-3.2-0.8-6.6,1.4-9.5L408.1,171.9z"/>
				<path class="st13" d="M408.1,197.9c8.3,0.1,16.5,0.2,24.8,0.2c0.1,8.6,0.1,17.2,0.2,25.8c0,0-0.3,0.3-0.3,0.3
					c-1.9,1.7-4.4,1.5-6.6,1.4c-6-0.4-12.2,1.2-18.1-1.1c-1.2-1.1-1.5-2.6-1.5-4c0-7-0.6-14.1,0.4-21.1
					C407.2,198.8,407.6,198.3,408.1,197.9z"/>
				<path class="st7" d="M126.1,172.1c0,15.7-0.1,31.5,0.1,47.2c0,3.6-0.8,5-4.7,4.8c-7.1-0.3-14.2-0.1-21.4-0.1c0-17.3,0-34.6,0-52
					C108.8,172.1,117.4,172.1,126.1,172.1z"/>
				<path class="st14" d="M407.9,376.9c0-7.1,0.1-14.2,0-21.3c-0.1-2.8,0.9-3.8,3.7-3.7c7.1,0.1,14.2,0,21.3,0c0,8.3,0,16.6,0,25
					C424.6,376.9,416.2,376.9,407.9,376.9z"/>
				<path class="st15" d="M279,172c8.7,0,17.4,0,26-0.1c0,0-0.1,0.3-0.1,0.3c2,2.2,1.6,5,1.6,7.6c0,19.9,0,39.8,0,59.7
					c0,7.9,0.1,7.8,8.1,8c5.4,0.2,10.9-1.1,16.2,1.1c2.6,3.6,1.5,7.7,1.5,11.5c0.1,13.4,0.1,13.3,13.5,13.4c3.3,0,6.6-0.1,9.9,0.1
					c8.4,0.2,16.9-0.8,25.3,0.6c0.6,0.3,1,0.7,1.4,1.2c1.5,4,0.8,8.2,0.9,12.3c0.2,12-1,10.8,11.1,10.8c2.8,0,5.6-0.1,8.4,0.1
					c1.8,0.1,3.7,0,5,1.6c0,7-0.3,14,0.1,21c0.2,4.2-1.4,5.1-5.2,4.9c-5.8-0.3-11.7,0-17.5-0.1c-2.6-0.1-3.5,0.9-3.5,3.5
					c0.1,5.5-0.3,11,0.1,16.5c0.4,4.7-1,6.2-6,6.2c-41.5-0.2-82.9-0.1-124.4-0.1c-14.7,0-29.3-0.1-44,0.1c-3.8,0.1-4.9-1.1-4.8-4.8
					c0.3-5.6-0.1-11.3,0.1-17c0.1-3.2-0.8-4.5-4.2-4.3c-5.7,0.2-11.3-0.2-17,0.2c-4.1,0.3-5.1-1.3-4.9-5.1c0.3-7,0.1-14,0.1-21
					c2.1-1.8,4.7-1.5,7.1-1.5c12,0,24,0,35.9,0c5.8,0,6.2-0.5,6.3-6.3c0.1-3.8,0-7.7,0-11.5c0-2,0-4,1.5-5.6
					c1.6-1.4,3.6-1.6,5.6-1.6c6.8,0,13.5-0.2,20.3,0.1c6-0.2,12,0,18-0.1c6.2-0.1,6.5-0.4,6.6-6.5c0.1-14.3-0.1-28.6,0.1-42.9
					c-0.3-6.3-0.1-12.6-0.1-18.9c0-3.7-1.2-5.5-5.2-5.5c-12.8,0.1-25.6-0.1-38.4,0.1c-4.7,0-5.3,0.7-5.3,6.3
					c-0.1,20.4,0,40.9,0,61.3c0,2.6,0.4,5.4-1.5,7.6c-2,1.9-4.6,1.6-7.1,1.7c-11.8,0-23.5,0-35.3,0c-6.9,0-7.1,0.2-7.2,7.3
					c0,3.5,0,7,0,10.4c0,2-0.1,4-1.5,5.6c-7,0-14-0.1-21,0c-2.9,0.1-4.1-0.7-4.1-3.9c0.1-22.8,0.1-45.6,0-68.4
					c0-3.3,1.3-3.9,4.2-3.8c5.7,0.1,11.3-0.1,17,0.1c3.1,0.1,4-1.1,4-4.1c-0.2-5.8,0.1-11.6-0.1-17.5c-0.1-3.4,0.8-4.8,4.4-4.6
					c6,0.3,12,0,18,0.1c2.9,0.1,3.8-1,3.7-3.8c-0.2-5.5,0.2-11-0.1-16.5c-0.3-4.4,0.9-6,5.7-5.9C232.1,172.2,255.5,172,279,172z"/>
				<path class="st16" d="M408,223.9c8.3,0.1,16.5,0.2,24.8,0.2c0,17,0,33.9,0.1,50.9c-1.7,1.6-4,1.5-6.1,1.5
					c-12.9,0.1-25.7,0.1-38.6,0c-2.1,0-4.3,0.1-6.1-1.5l-0.2-0.2c-1.2-1.3-1.5-3-1.4-4.7c0.4-7.1-1.3-14.3,1.1-21.3
					c2.6-2.1,5.7-1.3,8.6-1.5c5.1-0.4,11.4,2.1,14.9-1.2c3.6-3.4,0.9-9.7,1.4-14.8C406.6,228.9,405.9,226.1,408,223.9z"/>
				<path class="st17" d="M382,275.1c16.9,0,33.9,0,50.8,0c0,7.1,0,14.2,0.2,21.3c0.1,2.8-0.9,3.7-3.7,3.6c-7.1-0.1-14.2,0-21.3,0.1
					c-7.3-0.1-14.5-0.2-21.8-0.1c-3.2,0.1-4.4-0.8-4.3-4.1C382.1,289,382,282,382,275.1z"/>
				<path class="st18" d="M330.8,249.1c-7,0-14-0.3-20.9,0c-4.1,0.2-5-1.3-5-5.1c0.1-23.9,0.1-47.9,0.1-71.8c8.7,0,17.4,0,26,0
					c1.6,1.6,1.5,3.6,1.5,5.6c0,6.8,0.2,13.6-0.1,20.4c0.3,15.1,0.1,30.2,0.1,45.4C332.5,245.5,332.6,247.6,330.8,249.1z"/>
				<path class="st19" d="M331,198.1c0-8.6,0-17.3,0-25.9c17,0,34-0.1,50.9-0.1c0,0,0,0,0,0c1.1,1.2,1.5,2.6,1.5,4.1
					c-0.1,7.1,0.9,14.2-0.7,21.3c-0.3,0.6-0.8,1.1-1.4,1.4c-2,0.9-4.2,0.8-6.4,0.8c-12.3,0-24.6,0-36.9,0
					C335.7,199.6,333.1,199.9,331,198.1z"/>
				<path class="st20" d="M382.1,198c-0.1-8.6-0.1-17.3-0.2-25.9c8.6,0,17.3,0.1,25.9,0.1c0.1,8.6,0.2,17.2,0.3,25.7
					c0,0-0.3,0.3-0.3,0.3c-5,2.8-10.4,1.1-15.6,1.4C388.8,199.7,385.1,200.6,382.1,198z"/>
				<path class="st21" d="M382.1,198c8.6,0.1,17.1,0.2,25.7,0.2c0.1,8.6,0.1,17.2,0.2,25.8c0,6.3-0.3,12.7,0,19c0.3,4.7-1,6.5-6,6.2
					c-6.6-0.4-13.3-0.1-20-0.1c-1.8-1.5-1.7-3.5-1.7-5.5c-0.1-6.5-0.2-12.9,0.1-19.4c-0.2-6.8-0.1-13.5-0.1-20.3c0-2-0.1-4,1.4-5.6
					L382.1,198z"/>
				<path class="st22" d="M228,275c0-24.1,0-48.3-0.1-72.4c0-3.2,0.6-4.7,4.3-4.7c14.5,0.2,29,0.2,43.4,0c3.1,0,4.5,0.7,4.4,4.1
					c-0.3,7.3-0.1,14.6-0.2,22c-3.9,2.7-8.4,1.4-12.6,1.5c-12.9,0.3-11.6-1.4-11.7,11.8c-0.1,10.1,0,20.3,0,30.4
					c0,2.5,0.3,5-1.5,7.1C245.3,274.9,236.7,274.9,228,275L228,275z"/>
				<path class="st22" d="M381.8,198.2c0,8.6,0.1,17.3,0.1,25.9c-3.9,2.6-8.4,1.4-12.6,1.5c-12.9,0.3-11.6-1.4-11.7,11.8
					c-0.1,10.1,0,20.3,0,30.4c0,2.5,0.3,5-1.5,7.1c-6.9,0-13.9-0.1-20.8,0.2c-3.2,0.1-4.3-0.9-4.2-4.2c0.2-7.3,0-14.6-0.1-21.8
					c0.1-17,0.1-34,0.2-50.9C347.9,198.1,364.8,198.1,381.8,198.2z"/>
				<path class="st23" d="M254,274.9c0-15.6,0.1-31.2-0.1-46.8c0-3.2,0.7-4.3,4.1-4.1c7.3,0.3,14.6,0.1,21.9,0.1
					c0,15.8,0,31.6,0.2,47.3c0,2.8-0.7,3.8-3.6,3.7C269,274.8,261.5,274.9,254,274.9z"/>
				<path class="st24" d="M356,274.9c0-15.6,0.1-31.2-0.1-46.8c0-3.2,0.8-4.3,4.1-4.1c7.3,0.3,14.6,0.1,21.9,0.1
					c0.1,8.3,0.2,16.6,0.2,24.9c-0.1,8.6-0.2,17.3-0.2,25.9C373.2,274.9,364.6,274.9,356,274.9z"/>
				<path class="st17" d="M177.1,300c0-7,0.1-13.9-0.1-20.9c-0.1-3.4,1.1-4.2,4.3-4.1c15.6,0.1,31.2,0.1,46.8,0.1
					c0,0-0.1-0.1-0.1-0.1c0,7-0.1,13.9,0.1,20.9c0.1,3.3-1,4.2-4.3,4.2C208.2,299.9,192.6,300,177.1,300
					C177,300,177.1,300,177.1,300z"/>
			</g>
		</g>
	</g>
</g>
</svg>
