<svg width="317" height="231" fill="none" xmlns="http://www.w3.org/2000/svg"><path fill-rule="evenodd" clip-rule="evenodd" d="M18.396 187.025c.497-12.467 4.06-64.102 6.886-82.701 2.827-18.6 8.342-22.964 10.106-28.91 1.765-5.944-1.644-4.296.514-6.793s12.384-6.981 12.419-8.187c.034-1.206-16.547 4.67-12.265.934 4.3-3.72 32.22-19.465 37.975-23.338 5.738-3.873-5.807.697-3.477.102 2.33-.594 10.551-1.342 17.437-3.686 6.903-2.36 9.627-6.726 23.895-10.429 14.286-3.703 43.216-14.403 61.784-11.804 18.568 2.598 40.082 23.677 49.622 27.43 9.541 3.755 2.09-6.199 7.623-4.908 5.549 1.29 19.527 7.558 25.642 12.637 6.115 5.096 6.149 13.945 11.048 17.936 4.916 3.975 16.238 2.956 18.413 6.013 2.176 3.04-5.395 6.981-5.344 12.298.069 5.316 2.775 12.993 5.721 19.618 2.929 6.607 8.599 13.554 11.905 20.076 3.323 6.506 7.382 10.99 7.965 18.956.582 7.983-1.696 21.333-4.471 28.892-2.775 7.541-8.667 12.79-12.196 16.391-3.528 3.601-5.806 3.244-8.992 5.197-3.203 1.953-6.938 3.041-10.175 6.489-3.237 3.431-5.515 12.857-9.267 14.165-3.768 1.308-9.249-5.911-13.275-6.318-4.008-.408-2.243 1.528-10.859 3.855s-14.406 10.327-40.87 10.124c-26.481-.221-92.41-7.678-117.966-11.38-25.557-3.686-28.28-7.423-35.372-10.803-7.074-3.38-3.837-7.253-7.091-9.427-3.255-2.191-9.918-2.072-12.453-3.652-2.535-1.579-1.61-4.348-2.775-5.809" fill="#5DC1B9"/><path d="m9.66 179.484.669-6.336c.445-4.224 1.353-11.171 2.723-20.841 1.37-9.681 2.33-16.713 2.878-21.096.548-4.382.834-7.971.856-10.768.012-2.797.84-7.089 2.484-12.875 1.667-5.775 2.918-10.48 3.751-14.115a147.06 147.06 0 0 1 2.707-10.106c.97-3.091 2.278-6.896 3.922-11.414 1.656-4.507 3.266-8.527 4.83-12.06 1.576-3.521 3.14-6.262 4.694-8.22a1349.5 1349.5 0 0 1 4.762-5.895 276.688 276.688 0 0 0 5.138-6.539 61.851 61.851 0 0 1 5.944-6.71c2.147-2.083 5.133-4.093 8.958-6.029a209.276 209.276 0 0 0 11.631-6.352c3.905-2.3 7.023-3.879 9.352-4.74 2.319-.849 5.265-1.754 8.839-2.717 3.574-.962 6.777-1.823 9.609-2.582a95.968 95.968 0 0 1 8.068-1.783 70.896 70.896 0 0 1 8.153-.9c2.889-.17 6.298-.334 10.226-.493 3.94-.158 7.674-.277 11.202-.357 3.529-.079 7.018-.153 10.466-.22a824.72 824.72 0 0 1 11.22-.102c4.031-.023 8.164.141 12.401.492 4.225.351 8.033 1.234 11.425 2.65 3.38 1.404 6.509 2.53 9.387 3.38 2.866.86 5.418 1.834 7.656 2.921 2.227 1.099 5.19 2.452 8.89 4.06 3.7 1.597 6.726 2.978 9.078 4.144a45.198 45.198 0 0 0 7.075 2.803c2.363.69 5.618 1.834 9.763 3.431 4.134 1.597 7.337 2.972 9.609 4.127 2.273 1.155 5.282 2.945 9.027 5.368a993.37 993.37 0 0 1 8.873 5.792 90.108 90.108 0 0 1 6.561 4.806c2.192 1.767 4.516 4.247 6.971 7.44 2.467 3.182 4.893 7.077 7.28 11.686 2.398 4.609 4.339 8.99 5.824 13.147 1.496 4.155 2.763 7.518 3.802 10.089 1.039 2.582 2.227 6.075 3.563 10.48 1.325 4.405 2.364 8.419 3.117 12.042a574.314 574.314 0 0 0 2.33 10.837 388.566 388.566 0 0 1 2.09 9.817c.571 2.956 1.09 5.759 1.558 8.408.469 2.661.788 5.26.96 7.796.171 2.548.108 6.274-.189 11.177s-.828 9.455-1.593 13.656c-.753 4.19-1.553 7.672-2.398 10.446-.833 2.774-2.141 5.65-3.922 8.628-1.77 2.967-3.54 5.306-5.31 7.015a22.172 22.172 0 0 1-6.03 4.196c-2.249 1.087-5.418 2.174-9.506 3.261a135.871 135.871 0 0 0-12.47 4.025c-4.225 1.586-7.885 2.531-10.98 2.837-3.083.317-6.035.623-8.855.917-2.821.295-7.12.742-12.898 1.342-5.79.611-9.884 1.093-12.282 1.444-2.409.351-5.338.594-8.787.73-3.437.125-7.851.459-13.241 1.002-5.389.544-9.552.844-12.486.9-2.935.057-6.344.012-10.226-.135a272.608 272.608 0 0 0-10.243-.221 587.08 587.08 0 0 0-8.291.085l-11.459.153c-5.07.056-9.809-.063-14.217-.357-4.419-.295-8.388-.47-11.905-.527-3.517-.045-6.68-.039-9.489.017l-8.462.136a197.95 197.95 0 0 0-8.736.34c-2.98.181-5.932.345-8.855.493-2.935.147-5.716.056-8.342-.272-2.615-.329-5.904-1.393-9.866-3.194-3.951-1.8-7.394-3.255-10.329-4.365-2.935-1.098-6.24-2.525-9.918-4.28-3.688-1.755-6.646-3.708-8.872-5.86-2.227-2.151-4.95-3.901-8.17-5.248a508.932 508.932 0 0 1-8.188-3.482c-2.25-.974-4.894-2.554-7.931-4.739-3.049-2.174-4.99-3.663-5.824-4.467a10.396 10.396 0 0 1-3.1-5.996 9.981 9.981 0 0 1 .034-3.397c.206-1.144.588-2.22 1.148-3.227a10.482 10.482 0 0 1 5.002-4.57 10.646 10.646 0 0 1 3.34-.883 10.821 10.821 0 0 1 3.408.238c1.142.26 2.204.696 3.186 1.308a10.703 10.703 0 0 1 2.604 2.242c.742.895 1.319 1.88 1.73 2.955a10.305 10.305 0 0 1 .274 6.727 9.99 9.99 0 0 1-1.49 3.074 10.5 10.5 0 0 1-2.398 2.463 10.69 10.69 0 0 1-3.067 1.545 10.165 10.165 0 0 1-3.391.51 10.465 10.465 0 0 1-3.392-.594 10.799 10.799 0 0 1-3.031-1.648 10.22 10.22 0 0 1-2.33-2.514 10.462 10.462 0 0 1-1.405-3.108 10.361 10.361 0 0 1-.325-3.397 10.546 10.546 0 0 1 2.604-6.234c.765-.86 1.65-1.585 2.655-2.174a10.888 10.888 0 0 1 3.22-1.223 10.9 10.9 0 0 1 3.426-.136c1.153.147 2.255.47 3.305.968l1.576.748 5.207 2.972c3.472 1.993 6.492 3.448 9.062 4.365 2.569.918 5.127 2.186 7.673 3.805 2.547 1.631 4.677 3.578 6.39 5.843 1.712 2.265 3.642 4.014 5.79 5.248 2.146 1.235 4.944 2.639 8.392 4.213a141.91 141.91 0 0 0 11.066 4.45c3.94 1.404 7.37 2.18 10.294 2.327 2.912.147 5.858.311 8.838.493a195.1 195.1 0 0 0 8.736.339l8.462.136c2.809.057 5.972.062 9.489.017 3.517-.057 7.48-.232 11.888-.526 4.419-.306 9.158-.431 14.217-.374 5.058.057 8.867.102 11.425.136 2.546.022 5.287.028 8.222.017 2.923-.023 6.269-.136 10.037-.34 3.757-.215 6.983-.362 9.678-.442 2.695-.09 5.276-.215 7.742-.373 2.467-.159 5.173-.459 8.119-.9a115.21 115.21 0 0 1 8.599-1.003c2.786-.226 5.675-.577 8.667-1.053 2.992-.487 5.841-.86 8.548-1.121a64.063 64.063 0 0 0 7.862-1.24 174.63 174.63 0 0 1 8.513-1.664 436.996 436.996 0 0 1 9.112-1.444c2.924-.43 6.978-1.659 12.162-3.686 5.184-2.015 9.141-3.872 11.87-5.571 2.729-1.71 4.745-3.901 6.047-6.573 1.302-2.684 2.089-5.266 2.364-7.746.274-2.468.576-5.661.907-9.579.332-3.907.526-7.264.583-10.073.057-2.808-.183-6.007-.72-9.596-.548-3.601-1.581-7.457-3.1-11.567-1.519-4.111-2.575-7.83-3.169-11.16a113.034 113.034 0 0 0-2.192-9.919c-.88-3.272-2.387-7.462-4.522-12.57a662.647 662.647 0 0 0-6.287-14.521c-2.044-4.552-4.482-8.284-7.314-11.194-2.832-2.921-5.749-5.407-8.753-7.456a599.835 599.835 0 0 1-7.656-5.3c-2.09-1.483-4.968-3.25-8.633-5.3-3.654-2.049-7.154-3.55-10.5-4.5-3.357-.951-6.8-2.254-10.329-3.907-3.528-1.664-7.639-3.476-12.333-5.435-4.693-1.97-8.381-3.55-11.065-4.74-2.695-1.2-5.927-2.513-9.695-3.94-3.78-1.426-7.091-2.293-9.935-2.598-2.843-.295-6.28-.448-10.311-.459a1039.4 1039.4 0 0 1-11.203-.119c-3.425-.045-6.868-.096-10.328-.153a547.88 547.88 0 0 0-10.655-.068c-3.654.012-7.456.181-11.407.51-3.951.328-7.223.883-9.815 1.664a144.85 144.85 0 0 0-8.462 2.854c-3.026 1.121-6.709 2.627-11.048 4.518-4.35 1.902-7.617 3.476-9.798 4.722-2.18 1.245-4.682 2.463-7.502 3.652a20.832 20.832 0 0 0-7.366 5.214 96.094 96.094 0 0 1-6.663 6.608 125.519 125.519 0 0 0-6.714 6.505c-2.124 2.22-4.265 4.863-6.424 7.932-2.17 3.069-3.591 5.798-4.265 8.187-.673 2.378-1.576 4.858-2.706 7.44-1.13 2.581-2.198 5.673-3.203 9.273-1.005 3.601-2.078 7.955-3.22 13.062-1.142 5.107-1.908 9.11-2.296 12.009-.388 2.91-.782 6.584-1.182 11.023-.41 4.439-1.056 11.431-1.935 20.977-.88 9.546-1.428 16.442-1.645 20.688-.205 4.224-.37 6.63-.496 7.219a7.428 7.428 0 0 1-.548 1.681 7.7 7.7 0 0 1-.96 1.512 7.366 7.366 0 0 1-1.284 1.24c-.48.362-1 .657-1.56.883a7.452 7.452 0 0 1-1.712.51 6.74 6.74 0 0 1-1.781.068 7.74 7.74 0 0 1-1.748-.34 7.347 7.347 0 0 1-1.627-.764 7.343 7.343 0 0 1-2.484-2.531 7.895 7.895 0 0 1-.702-1.631 7.088 7.088 0 0 1-.29-1.749l-.052-.883z" fill="#1E1E1E"/><path d="m130.099 144.795.959 3.923c.651 2.627 2.49 3.969 5.516 4.026 3.026.045 5.344-.051 6.954-.289 1.61-.249 3.026-.595 4.248-1.036 1.222-.442 2.421-1.15 3.597-2.123 1.188-.963 2.244-2.288 3.169-3.975.936-1.687 1.45-2.536 1.542-2.548.102 0 .262-.141.479-.424.206-.283.451-.538.737-.765.274-.226.571-.413.891-.56a4.234 4.234 0 0 1 1.01-.34 4.82 4.82 0 0 1 1.062-.085c.366.023.72.079 1.062.17.343.102.668.244.976.425.309.17.589.379.84.628.262.249.491.521.685.815.183.306.331.629.445.969.114.328.189.673.223 1.036.023.351.006.702-.051 1.053a3.99 3.99 0 0 1-.292.985c-.148.328.029 1.229.531 2.701.491 1.46 1.65 2.949 3.478 4.467 1.815 1.506 3.345 2.298 4.59 2.378 1.245.09 2.724-.459 4.436-1.648 1.713-1.189 3.118-2.208 4.214-3.057 1.108-.861 2.375-1.959 3.803-3.295 1.427-1.314 2.444-2.554 3.049-3.72.605-1.155 1.336-2.956 2.192-5.402.857-2.434 1.462-3.889 1.816-4.365a5.277 5.277 0 0 1 1.25-1.206 5.6 5.6 0 0 1 1.593-.764 5.69 5.69 0 0 1 1.747-.204 5.328 5.328 0 0 1 1.713.357 5.073 5.073 0 0 1 1.508.883c.456.374.845.81 1.164 1.308.309.498.531 1.03.668 1.597a5.28 5.28 0 0 1 .12 1.749 5.471 5.471 0 0 1-.445 1.682 5.662 5.662 0 0 1-.976 1.443c-.4.442-.862.799-1.388 1.07a5.248 5.248 0 0 1-1.644.578 5.762 5.762 0 0 1-1.764.034 5.4 5.4 0 0 1-1.662-.544 5.776 5.776 0 0 1-1.422-1.036 5.165 5.165 0 0 1-.993-1.427 5.095 5.095 0 0 1-.497-1.664 5.612 5.612 0 0 1 .069-1.75 5.357 5.357 0 0 1 .633-1.613 5.25 5.25 0 0 1 1.114-1.342 5.699 5.699 0 0 1 1.507-.917 5.52 5.52 0 0 1 1.696-.408 5.665 5.665 0 0 1 1.747.17 5.734 5.734 0 0 1 1.61.713c.491.329.919.725 1.285 1.189.365.465.645.974.839 1.529.206.555.309 1.127.309 1.716a5.243 5.243 0 0 1-.257 1.715l-.274.832-1.114 3.126c-.731 2.072-1.353 3.668-1.867 4.789-.514 1.122-1.233 2.333-2.158 3.635-.937 1.314-1.879 2.446-2.826 3.397-.96.952-2.216 2.067-3.769 3.347-1.564 1.29-2.912 2.281-4.042 2.972a144.634 144.634 0 0 1-4.128 2.395c-1.633.917-3.574 1.602-5.824 2.055-2.25.464-4.288.459-6.115-.017-1.839-.464-3.306-1.047-4.402-1.749a17.657 17.657 0 0 1-3.032-2.446c-.936-.94-1.993-2.14-3.169-3.601-1.165-1.461-1.993-2.825-2.484-4.094-.502-1.279-.73-2.712-.685-4.297.046-1.585.114-3.176.206-4.773.091-1.596.245-2.536.462-2.819.206-.283.451-.538.737-.765.274-.226.571-.413.891-.56a4.234 4.234 0 0 1 1.01-.34 4.82 4.82 0 0 1 1.062-.085c.366.023.72.079 1.062.17.343.102.668.244.976.425.309.17.589.379.84.628.262.249.491.521.685.815.183.306.331.629.445.969.114.328.189.673.223 1.036.023.351.006.702-.051 1.053a3.99 3.99 0 0 1-.292.985c-.148.328-.719 1.098-1.713 2.31-.993 1.212-2.438 2.672-4.333 4.382-1.907 1.721-3.46 2.842-4.659 3.363-1.199.521-2.621.974-4.265 1.359-1.633.385-3.466.668-5.499.849-2.032.181-5.047.029-9.044-.458-4.008-.487-6.994-2.35-8.958-5.588-1.987-3.228-3.026-5-3.118-5.317a3.337 3.337 0 0 1-.171-.934 3.754 3.754 0 0 1 .052-.951c.068-.317.165-.623.291-.917.137-.295.308-.567.514-.816.205-.26.434-.487.685-.679.262-.204.542-.368.839-.493a3.863 3.863 0 0 1 1.884-.339c.32.022.64.079.959.169.309.102.6.238.874.408.286.17.542.368.771.595.228.226.422.481.582.764l.257.408zM108.46 65.45l-.051 2.718a241.607 241.607 0 0 1-.24 6.675c-.126 2.639-.337 7.394-.634 14.268-.285 6.873-.537 12.846-.754 17.919-.217 5.073-.348 7.746-.394 8.017-.057.284-.159.55-.308.799-.148.249-.325.47-.531.662a2.664 2.664 0 0 1-.719.459 2.597 2.597 0 0 1-.823.204c-.296.022-.582 0-.856-.068a3.109 3.109 0 0 1-.788-.34 2.784 2.784 0 0 1-1.062-1.325 2.828 2.828 0 0 1-.154-.832 2.313 2.313 0 0 1 .12-.832 2.8 2.8 0 0 1 .377-.765c.171-.238.377-.436.616-.594.24-.17.497-.295.771-.374.274-.091.56-.13.857-.119.285.011.565.068.839.17.263.091.502.226.719.408.229.181.417.396.566.645.159.238.274.498.342.781.069.284.091.567.069.85a2.527 2.527 0 0 1-.206.815c-.126.272-.285.51-.48.713a2.943 2.943 0 0 1-.65.544c-.252.136-.52.232-.805.289a3.116 3.116 0 0 1-.857.017 3.063 3.063 0 0 1-.822-.255 2.626 2.626 0 0 1-1.182-1.189 2.951 2.951 0 0 1-.257-.815l-.051-.425.154-7.609c.103-5.073.228-11.03.377-17.869.137-6.84.171-11.607.102-14.302-.068-2.683-.051-4.937.052-6.76.103-1.812.177-2.842.223-3.091.034-.26.102-.51.205-.747.103-.238.234-.465.394-.68.16-.204.337-.39.531-.56a3.631 3.631 0 0 1 1.405-.663c.262-.045.519-.068.77-.068.252.012.509.057.771.136.251.068.491.164.72.289.217.136.422.294.616.476.194.18.36.379.497.594.137.215.251.447.343.696.08.25.131.504.154.765l.034.373zM211.256 69.11l.479 4.246c.32 2.842.64 7.162.959 12.96.32 5.797.594 10.808.823 15.031.228 4.235.325 6.494.291 6.777-.023.284-.092.55-.206.799-.114.26-.268.492-.462.696a2.498 2.498 0 0 1-1.473.798 2.948 2.948 0 0 1-.84.017 2.503 2.503 0 0 1-.805-.271 2.643 2.643 0 0 1-.685-.493 2.703 2.703 0 0 1-.479-.696 2.648 2.648 0 0 1-.223-.799 2.547 2.547 0 0 1 .034-.832 2.57 2.57 0 0 1 .291-.781 2.53 2.53 0 0 1 .548-.646c.217-.181.457-.328.72-.441a2.9 2.9 0 0 1 .822-.187c.286-.023.565.006.839.085.274.068.531.181.771.34.24.158.445.345.617.56.171.226.308.476.411.747.091.261.137.533.137.816 0 .283-.04.56-.12.832a2.626 2.626 0 0 1-.993 1.325c-.24.158-.497.277-.771.356a2.59 2.59 0 0 1-.84.102 2.553 2.553 0 0 1-.822-.169 2.835 2.835 0 0 1-.736-.425 2.61 2.61 0 0 1-.874-1.41l-.086-.408-.496-6.335c-.32-4.224-.697-9.155-1.131-14.794-.434-5.64-.902-9.869-1.404-12.688-.491-2.82-.743-4.36-.754-4.62a3.426 3.426 0 0 1 .343-1.478c.114-.238.256-.453.428-.645.171-.204.365-.38.582-.527a3.32 3.32 0 0 1 .685-.374c.24-.102.491-.17.754-.203.251-.034.502-.04.754-.017.262.022.519.079.77.17.252.09.486.203.703.34.217.146.417.316.599.509.172.192.32.402.446.628.125.227.222.464.291.714l.103.39z" fill="#1E1E1E"/></svg>