<svg width="317" height="231" viewBox="0 0 317 231" fill="none" xmlns="http://www.w3.org/2000/svg">
<path fill-rule="evenodd" clip-rule="evenodd" d="M18.3965 187.025C18.8932 174.558 22.456 122.923 25.2823 104.324C28.1086 85.7248 33.6241 81.3596 35.3884 75.4147C37.1526 69.4699 33.744 71.1175 35.9022 68.6206C38.0605 66.1238 48.2864 61.6397 48.3207 60.4337C48.3549 59.2278 31.7742 65.1047 36.0564 61.3679C40.3557 57.6481 68.2758 41.9028 74.0311 38.0301C79.7693 34.1575 68.2244 38.7265 70.554 38.132C72.8835 37.5375 81.1054 36.7902 87.9912 34.4462C94.8941 32.0853 97.6176 27.72 111.886 24.0172C126.172 20.3144 155.102 9.61371 173.67 12.2125C192.238 14.8112 213.752 35.89 223.292 39.6437C232.833 43.3975 225.382 33.4441 230.915 34.735C236.464 36.0258 250.442 42.2934 256.557 47.372C262.672 52.4676 262.706 61.3169 267.605 65.3085C272.521 69.283 283.843 68.2639 286.018 71.3213C288.194 74.3617 280.623 78.3022 280.674 83.6186C280.743 88.935 283.449 96.6124 286.395 103.237C289.324 109.844 294.994 116.791 298.3 123.313C301.623 129.819 305.682 134.303 306.265 142.269C306.847 150.252 304.569 163.602 301.794 171.161C299.019 178.702 293.127 183.951 289.598 187.552C286.07 191.153 283.792 190.796 280.606 192.749C277.403 194.702 273.668 195.79 270.431 199.238C267.194 202.669 264.916 212.095 261.164 213.403C257.396 214.711 251.915 207.492 247.889 207.085C243.881 206.677 245.646 208.613 237.03 210.94C228.414 213.267 222.624 221.267 196.16 221.064C169.679 220.843 103.75 213.386 78.1935 209.684C52.6371 205.998 49.9137 202.261 42.8223 198.881C35.7481 195.501 38.9854 191.628 35.7309 189.454C32.4764 187.263 25.8133 187.382 23.2782 185.802C20.7431 184.223 21.6681 181.454 20.5033 179.993" fill="#5DC1B9"/>
<path d="M9.6607 179.484C9.6607 179.484 9.88338 177.372 10.3287 173.148C10.7741 168.924 11.6819 161.977 13.0522 152.307C14.4225 142.626 15.3818 135.594 15.9299 131.211C16.478 126.829 16.7635 123.24 16.7863 120.443C16.7977 117.646 17.6256 113.354 19.27 107.568C20.9372 101.793 22.1876 97.088 23.0212 93.4531C23.8663 89.8183 24.7684 86.4495 25.7276 83.3469C26.6982 80.2555 28.0058 76.4508 29.6501 71.9327C31.3059 67.426 32.916 63.4061 34.4805 59.8732C36.0563 56.3516 37.6208 53.6113 39.1738 51.6523C40.7382 49.7047 42.3255 47.74 43.9356 45.7584C45.5457 43.7768 47.2586 41.597 49.0743 39.2191C50.9014 36.8298 52.8826 34.5934 55.018 32.5099C57.1649 30.4263 60.151 28.4164 63.9764 26.4801C67.8133 24.5438 71.6902 22.4263 75.607 20.1276C79.5124 17.8289 82.6298 16.2493 84.9593 15.3887C87.2775 14.5394 90.2236 13.6336 93.7979 12.6711C97.3721 11.7086 100.575 10.848 103.407 10.0893C106.239 9.34194 108.928 8.74745 111.475 8.30583C114.033 7.86422 116.751 7.56414 119.628 7.40562C122.517 7.23576 125.926 7.07157 129.854 6.91304C133.794 6.75451 137.528 6.63562 141.056 6.55635C144.585 6.47709 148.074 6.40349 151.522 6.33555C154.959 6.27893 158.699 6.24495 162.742 6.23363C166.773 6.21098 170.906 6.37517 175.143 6.7262C179.368 7.07723 183.176 7.96046 186.568 9.3759C189.948 10.78 193.077 11.9067 195.955 12.756C198.821 13.6166 201.373 14.5904 203.611 15.6775C205.838 16.7758 208.801 18.129 212.501 19.7369C216.201 21.3336 219.227 22.715 221.579 23.8813C223.943 25.0477 226.301 25.9819 228.654 26.6839C231.017 27.3747 234.272 28.5183 238.417 30.115C242.551 31.7116 245.754 33.0874 248.026 34.2424C250.299 35.3974 253.308 37.1865 257.053 39.6097C260.799 42.033 263.757 43.9636 265.926 45.4017C268.096 46.8398 270.283 48.4421 272.487 50.2085C274.679 51.975 277.003 54.4549 279.458 57.6481C281.925 60.83 284.351 64.7253 286.738 69.334C289.136 73.9427 291.077 78.3249 292.562 82.4806C294.058 86.6364 295.325 89.9994 296.364 92.5699C297.403 95.1516 298.591 98.645 299.927 103.05C301.252 107.455 302.291 111.469 303.044 115.092C303.787 118.716 304.563 122.328 305.374 125.929C306.185 129.53 306.881 132.802 307.464 135.746C308.035 138.702 308.554 141.505 309.022 144.154C309.491 146.815 309.81 149.414 309.982 151.95C310.153 154.498 310.09 158.224 309.793 163.127C309.496 168.03 308.965 172.582 308.2 176.783C307.447 180.973 306.647 184.455 305.802 187.229C304.969 190.003 303.661 192.879 301.88 195.857C300.11 198.824 298.34 201.163 296.57 202.872C294.811 204.594 292.801 205.992 290.54 207.068C288.291 208.155 285.122 209.242 281.034 210.329C276.946 211.427 272.789 212.769 268.564 214.354C264.339 215.94 260.679 216.885 257.584 217.191C254.501 217.508 251.549 217.814 248.729 218.108C245.908 218.403 241.609 218.85 235.831 219.45C230.041 220.061 225.947 220.543 223.549 220.894C221.14 221.245 218.211 221.488 214.762 221.624C211.325 221.749 206.911 222.083 201.521 222.626C196.132 223.17 191.969 223.47 189.035 223.526C186.1 223.583 182.691 223.538 178.809 223.391C174.926 223.243 171.512 223.17 168.566 223.17C165.608 223.181 162.844 223.209 160.275 223.255C157.706 223.289 153.886 223.34 148.816 223.408C143.746 223.464 139.007 223.345 134.599 223.051C130.18 222.756 126.211 222.581 122.694 222.524C119.177 222.479 116.014 222.485 113.205 222.541C110.396 222.587 107.575 222.632 104.743 222.677C101.911 222.723 98.9993 222.836 96.0075 223.017C93.0271 223.198 90.0752 223.362 87.1518 223.51C84.2171 223.657 81.4365 223.566 78.8101 223.238C76.1951 222.909 72.9063 221.845 68.9438 220.044C64.9928 218.244 61.5498 216.789 58.6151 215.679C55.6803 214.581 52.3745 213.154 48.6975 211.399C45.009 209.644 42.0514 207.691 39.8247 205.539C37.5979 203.388 34.8744 201.638 31.6542 200.291C28.4454 198.954 25.7162 197.794 23.4666 196.809C21.217 195.835 18.5734 194.255 15.5359 192.07C12.487 189.896 10.5457 188.407 9.71209 187.603C8.87848 186.799 8.19333 185.881 7.65662 184.851C7.13133 183.832 6.78305 182.75 6.61176 181.607C6.42905 180.474 6.44047 179.342 6.64602 178.21C6.85156 177.066 7.23411 175.99 7.79365 174.983C8.3532 173.963 9.06119 173.063 9.91764 172.282C10.7741 171.501 11.7333 170.878 12.7953 170.413C13.8573 169.938 14.9707 169.643 16.1354 169.53C17.2774 169.428 18.4136 169.508 19.5441 169.768C20.686 170.028 21.748 170.464 22.7301 171.076C23.7235 171.687 24.5914 172.435 25.3336 173.318C26.0759 174.213 26.6526 175.198 27.0637 176.273C27.4862 177.349 27.7203 178.465 27.7659 179.62C27.8116 180.763 27.6689 181.89 27.3377 183C27.018 184.109 26.5212 185.134 25.8475 186.074C25.1852 187.025 24.3858 187.846 23.4495 188.537C22.5131 189.216 21.4911 189.731 20.3834 190.082C19.2757 190.445 18.1452 190.615 16.9919 190.592C15.8271 190.581 14.6966 190.383 13.6003 189.998C12.5041 189.613 11.4935 189.063 10.5685 188.35C9.65499 187.648 8.87848 186.81 8.239 185.836C7.59952 184.874 7.13133 183.838 6.83443 182.728C6.53753 181.607 6.42905 180.474 6.50899 179.331C6.58892 178.187 6.85156 177.077 7.29691 176.002C7.74227 174.937 8.34749 173.969 9.11258 173.097C9.87767 172.237 10.7627 171.512 11.7676 170.923C12.7725 170.346 13.8459 169.938 14.9878 169.7C16.1297 169.474 17.2716 169.428 18.4136 169.564C19.5669 169.711 20.6689 170.034 21.7194 170.532C22.77 171.031 23.2953 171.28 23.2953 171.28C23.2953 171.28 25.031 172.271 28.5025 174.252C31.9739 176.245 34.9943 177.7 37.5637 178.617C40.133 179.535 42.6909 180.803 45.2374 182.422C47.7839 184.053 49.9136 186 51.6265 188.265C53.3394 190.53 55.2693 192.279 57.4161 193.513C59.5629 194.748 62.3606 196.152 65.8092 197.726C69.2464 199.288 72.9349 200.772 76.8745 202.176C80.8141 203.58 84.2456 204.356 87.169 204.503C90.0809 204.65 93.0271 204.814 96.0075 204.996C98.9879 205.177 101.9 205.29 104.743 205.335C107.575 205.381 110.396 205.426 113.205 205.471C116.014 205.528 119.177 205.533 122.694 205.488C126.211 205.431 130.174 205.256 134.582 204.962C139.001 204.656 143.74 204.531 148.799 204.588C153.857 204.645 157.666 204.69 160.224 204.724C162.77 204.746 165.511 204.752 168.446 204.741C171.369 204.718 174.715 204.605 178.483 204.401C182.24 204.186 185.466 204.039 188.161 203.959C190.856 203.869 193.437 203.744 195.903 203.586C198.37 203.427 201.076 203.127 204.022 202.686C206.968 202.233 209.835 201.899 212.621 201.683C215.407 201.457 218.296 201.106 221.288 200.63C224.28 200.143 227.129 199.77 229.836 199.509C232.542 199.249 235.163 198.836 237.698 198.269C240.221 197.703 243.059 197.148 246.211 196.605C249.363 196.073 252.4 195.591 255.323 195.161C258.247 194.731 262.301 193.502 267.485 191.475C272.669 189.46 276.626 187.603 279.355 185.904C282.084 184.194 284.1 182.003 285.402 179.331C286.704 176.647 287.491 174.065 287.766 171.585C288.04 169.117 288.342 165.924 288.673 162.006C289.005 158.099 289.199 154.742 289.256 151.933C289.313 149.125 289.073 145.926 288.536 142.337C287.988 138.736 286.955 134.88 285.436 130.77C283.917 126.659 282.861 122.94 282.267 119.61C281.685 116.27 280.954 112.964 280.075 109.691C279.195 106.419 277.688 102.229 275.553 97.1219C273.406 92.0037 271.31 87.1629 269.266 82.5995C267.222 78.0475 264.784 74.3164 261.952 71.4062C259.12 68.4847 256.203 65.9992 253.199 63.9497C250.196 61.9001 247.644 60.1336 245.543 58.6502C243.453 57.1669 240.575 55.4004 236.91 53.3508C233.256 51.3013 229.756 49.8009 226.41 48.8497C223.053 47.8986 219.61 46.5963 216.081 44.9431C212.553 43.2786 208.442 41.4668 203.748 39.5078C199.055 37.5375 195.367 35.9579 192.683 34.7689C189.988 33.5686 186.756 32.2551 182.988 30.8283C179.208 29.4016 175.897 28.5353 173.053 28.2296C170.21 27.9352 166.773 27.7823 162.742 27.771C158.711 27.7483 154.977 27.7087 151.539 27.6521C148.114 27.6068 144.671 27.5558 141.211 27.4992C137.751 27.4426 134.199 27.42 130.556 27.4313C126.902 27.4426 123.1 27.6124 119.149 27.9408C115.198 28.2692 111.926 28.8241 109.334 29.6054C106.73 30.3867 103.91 31.3379 100.872 32.4589C97.846 33.58 94.1633 35.086 89.8239 36.977C85.4732 38.8794 82.2073 40.4533 80.0262 41.6989C77.8451 42.9445 75.3443 44.1618 72.5238 45.3508C69.7032 46.5397 67.2481 48.2779 65.1583 50.5652C63.0686 52.8526 60.8476 55.055 58.4952 57.1725C56.1428 59.29 53.9046 61.4585 51.7807 63.6779C49.6567 65.8973 47.5156 68.5414 45.3573 71.61C43.1877 74.6787 41.766 77.4077 41.0922 79.7969C40.4185 82.1749 39.5164 84.6547 38.3859 87.2365C37.2554 89.8183 36.1877 92.9096 35.1828 96.5105C34.1779 100.111 33.1045 104.465 31.9625 109.572C30.8206 114.679 30.0555 118.682 29.6673 121.581C29.279 124.491 28.885 128.165 28.4854 132.604C28.0743 137.043 27.4291 144.035 26.5498 153.581C25.6705 163.127 25.1224 170.023 24.9054 174.269C24.6999 178.493 24.5343 180.899 24.4087 181.488C24.2945 182.065 24.1118 182.626 23.8606 183.169C23.5979 183.713 23.2782 184.217 22.9013 184.681C22.5245 185.145 22.0963 185.559 21.6167 185.921C21.1371 186.283 20.6175 186.578 20.0579 186.804C19.5098 187.042 18.9389 187.212 18.3451 187.314C17.7513 187.416 17.1575 187.438 16.5636 187.382C15.9698 187.336 15.3875 187.223 14.8165 187.042C14.2341 186.85 13.6917 186.595 13.1893 186.278C12.6754 185.961 12.2072 185.587 11.7847 185.157C11.3736 184.738 11.0139 184.268 10.7056 183.747C10.4087 183.226 10.1746 182.683 10.0033 182.116C9.83199 181.539 9.73493 180.956 9.71209 180.367C9.67783 179.778 9.6607 179.484 9.6607 179.484Z" fill="#1E1E1E"/>
<path d="M130.099 144.795C130.099 144.795 130.419 146.102 131.058 148.718C131.709 151.345 133.548 152.687 136.574 152.744C139.6 152.789 141.918 152.693 143.528 152.455C145.138 152.206 146.554 151.86 147.776 151.419C148.998 150.977 150.197 150.269 151.373 149.296C152.561 148.333 153.617 147.008 154.542 145.321C155.478 143.634 155.992 142.785 156.084 142.773C156.186 142.773 156.346 142.632 156.563 142.349C156.769 142.066 157.014 141.811 157.3 141.584C157.574 141.358 157.871 141.171 158.191 141.024C158.522 140.865 158.859 140.752 159.201 140.684C159.555 140.616 159.909 140.588 160.263 140.599C160.629 140.622 160.983 140.678 161.325 140.769C161.668 140.871 161.993 141.013 162.301 141.194C162.61 141.364 162.89 141.573 163.141 141.822C163.403 142.071 163.632 142.343 163.826 142.637C164.009 142.943 164.157 143.266 164.271 143.606C164.385 143.934 164.46 144.279 164.494 144.642C164.517 144.993 164.5 145.344 164.443 145.695C164.385 146.046 164.288 146.374 164.151 146.68C164.003 147.008 164.18 147.909 164.682 149.381C165.173 150.841 166.332 152.33 168.16 153.848C169.975 155.354 171.505 156.146 172.75 156.226C173.995 156.316 175.474 155.767 177.186 154.578C178.899 153.389 180.304 152.37 181.4 151.521C182.508 150.66 183.775 149.562 185.203 148.226C186.63 146.912 187.647 145.672 188.252 144.506C188.857 143.351 189.588 141.55 190.444 139.104C191.301 136.67 191.906 135.215 192.26 134.739C192.614 134.264 193.031 133.862 193.51 133.533C194.001 133.194 194.532 132.939 195.103 132.769C195.674 132.61 196.257 132.543 196.85 132.565C197.433 132.588 198.004 132.707 198.563 132.922C199.111 133.126 199.614 133.42 200.071 133.805C200.527 134.179 200.916 134.615 201.235 135.113C201.544 135.611 201.766 136.143 201.903 136.71C202.041 137.287 202.08 137.87 202.023 138.459C201.966 139.037 201.818 139.597 201.578 140.141C201.327 140.673 201.001 141.154 200.602 141.584C200.202 142.026 199.74 142.383 199.214 142.654C198.7 142.938 198.152 143.13 197.57 143.232C196.987 143.334 196.399 143.345 195.806 143.266C195.223 143.175 194.669 142.994 194.144 142.722C193.619 142.451 193.145 142.105 192.722 141.686C192.311 141.267 191.98 140.792 191.729 140.259C191.466 139.727 191.301 139.172 191.232 138.595C191.164 138.006 191.186 137.423 191.301 136.845C191.426 136.268 191.638 135.73 191.934 135.232C192.231 134.722 192.602 134.275 193.048 133.89C193.505 133.505 194.007 133.199 194.555 132.973C195.103 132.746 195.669 132.61 196.251 132.565C196.845 132.531 197.427 132.588 197.998 132.735C198.58 132.894 199.117 133.131 199.608 133.448C200.099 133.777 200.527 134.173 200.893 134.637C201.258 135.102 201.538 135.611 201.732 136.166C201.938 136.721 202.041 137.293 202.041 137.882C202.052 138.459 201.966 139.031 201.784 139.597C201.601 140.152 201.51 140.429 201.51 140.429C201.51 140.429 201.138 141.471 200.396 143.555C199.665 145.627 199.043 147.223 198.529 148.344C198.015 149.466 197.296 150.677 196.371 151.979C195.434 153.293 194.492 154.425 193.545 155.376C192.585 156.328 191.329 157.443 189.776 158.723C188.212 160.013 186.864 161.004 185.734 161.695C184.615 162.374 183.239 163.173 181.606 164.09C179.973 165.007 178.032 165.692 175.782 166.145C173.532 166.609 171.494 166.604 169.667 166.128C167.828 165.664 166.361 165.081 165.265 164.379C164.18 163.688 163.169 162.873 162.233 161.933C161.297 160.993 160.24 159.793 159.064 158.332C157.899 156.871 157.071 155.507 156.58 154.238C156.078 152.959 155.85 151.526 155.895 149.941C155.941 148.356 156.009 146.765 156.101 145.168C156.192 143.572 156.346 142.632 156.563 142.349C156.769 142.066 157.014 141.811 157.3 141.584C157.574 141.358 157.871 141.171 158.191 141.024C158.522 140.865 158.859 140.752 159.201 140.684C159.555 140.616 159.909 140.588 160.263 140.599C160.629 140.622 160.983 140.678 161.325 140.769C161.668 140.871 161.993 141.013 162.301 141.194C162.61 141.364 162.89 141.573 163.141 141.822C163.403 142.071 163.632 142.343 163.826 142.637C164.009 142.943 164.157 143.266 164.271 143.606C164.385 143.934 164.46 144.279 164.494 144.642C164.517 144.993 164.5 145.344 164.443 145.695C164.385 146.046 164.288 146.374 164.151 146.68C164.003 147.008 163.432 147.778 162.438 148.99C161.445 150.202 160 151.662 158.105 153.372C156.198 155.093 154.645 156.214 153.446 156.735C152.247 157.256 150.825 157.709 149.181 158.094C147.548 158.479 145.715 158.762 143.682 158.943C141.65 159.124 138.635 158.972 134.638 158.485C130.63 157.998 127.644 156.135 125.68 152.897C123.693 149.669 122.654 147.897 122.562 147.58C122.46 147.274 122.403 146.963 122.391 146.646C122.368 146.329 122.385 146.012 122.443 145.695C122.511 145.378 122.608 145.072 122.734 144.778C122.871 144.483 123.042 144.211 123.248 143.962C123.453 143.702 123.682 143.475 123.933 143.283C124.195 143.079 124.475 142.915 124.772 142.79C125.069 142.654 125.377 142.558 125.697 142.502C126.017 142.445 126.336 142.428 126.656 142.451C126.976 142.473 127.296 142.53 127.615 142.62C127.924 142.722 128.215 142.858 128.489 143.028C128.775 143.198 129.031 143.396 129.26 143.623C129.488 143.849 129.682 144.104 129.842 144.387C130.013 144.659 130.099 144.795 130.099 144.795Z" fill="#1E1E1E"/>
<path d="M108.46 65.4504C108.46 65.4504 108.443 66.3563 108.409 68.168C108.374 69.9911 108.294 72.2162 108.169 74.8433C108.043 77.4816 107.832 82.2375 107.535 89.1109C107.25 95.9843 106.998 101.957 106.781 107.03C106.564 112.103 106.433 114.776 106.387 115.047C106.33 115.331 106.228 115.597 106.079 115.846C105.931 116.095 105.754 116.316 105.548 116.508C105.331 116.701 105.091 116.854 104.829 116.967C104.566 117.08 104.292 117.148 104.006 117.171C103.71 117.193 103.424 117.171 103.15 117.103C102.865 117.023 102.602 116.91 102.362 116.763C102.122 116.604 101.911 116.412 101.728 116.185C101.546 115.959 101.403 115.71 101.3 115.438C101.209 115.178 101.157 114.9 101.146 114.606C101.135 114.323 101.175 114.045 101.266 113.774C101.357 113.49 101.483 113.236 101.643 113.009C101.814 112.771 102.02 112.573 102.259 112.415C102.499 112.245 102.756 112.12 103.03 112.041C103.304 111.95 103.59 111.911 103.887 111.922C104.172 111.933 104.452 111.99 104.726 112.092C104.989 112.183 105.228 112.318 105.445 112.5C105.674 112.681 105.862 112.896 106.011 113.145C106.17 113.383 106.285 113.643 106.353 113.926C106.422 114.21 106.444 114.493 106.422 114.776C106.399 115.059 106.33 115.331 106.216 115.591C106.09 115.863 105.931 116.101 105.736 116.304C105.542 116.52 105.325 116.701 105.086 116.848C104.834 116.984 104.566 117.08 104.281 117.137C103.995 117.182 103.71 117.188 103.424 117.154C103.139 117.108 102.865 117.023 102.602 116.899C102.351 116.774 102.122 116.61 101.917 116.406C101.711 116.202 101.546 115.97 101.42 115.71C101.294 115.449 101.209 115.178 101.163 114.895C101.129 114.611 101.112 114.47 101.112 114.47C101.112 114.47 101.163 111.933 101.266 106.861C101.369 101.788 101.494 95.8314 101.643 88.992C101.78 82.1526 101.814 77.3854 101.745 74.6904C101.677 72.0067 101.694 69.7533 101.797 67.9302C101.9 66.1185 101.974 65.088 102.02 64.8389C102.054 64.5785 102.122 64.3294 102.225 64.0916C102.328 63.8538 102.459 63.6273 102.619 63.4122C102.779 63.2083 102.956 63.0215 103.15 62.8516C103.356 62.6931 103.578 62.5572 103.818 62.444C104.058 62.3308 104.303 62.2458 104.555 62.1892C104.817 62.1439 105.074 62.1213 105.325 62.1213C105.577 62.1326 105.834 62.1779 106.096 62.2572C106.347 62.3251 106.587 62.4214 106.816 62.5459C107.033 62.6818 107.238 62.8403 107.432 63.0215C107.626 63.2027 107.792 63.4008 107.929 63.616C108.066 63.8311 108.18 64.0633 108.272 64.3124C108.352 64.5615 108.403 64.8163 108.426 65.0767C108.449 65.3258 108.46 65.4504 108.46 65.4504Z" fill="#1E1E1E"/>
<path d="M211.256 69.1092C211.256 69.1092 211.415 70.5246 211.735 73.3555C212.055 76.1977 212.375 80.5177 212.694 86.3153C213.014 92.1129 213.288 97.1236 213.517 101.347C213.745 105.582 213.842 107.841 213.808 108.124C213.785 108.408 213.716 108.674 213.602 108.923C213.488 109.183 213.334 109.415 213.14 109.619C212.946 109.834 212.723 110.01 212.472 110.146C212.22 110.282 211.952 110.372 211.667 110.417C211.393 110.463 211.113 110.468 210.827 110.434C210.542 110.389 210.274 110.299 210.022 110.163C209.771 110.038 209.543 109.874 209.337 109.67C209.143 109.466 208.983 109.234 208.858 108.974C208.743 108.725 208.669 108.458 208.635 108.175C208.601 107.892 208.612 107.615 208.669 107.343C208.726 107.06 208.823 106.8 208.96 106.562C209.109 106.313 209.291 106.098 209.508 105.916C209.725 105.735 209.965 105.588 210.228 105.475C210.49 105.373 210.765 105.311 211.05 105.288C211.336 105.265 211.615 105.294 211.889 105.373C212.163 105.441 212.42 105.554 212.66 105.713C212.9 105.871 213.105 106.058 213.277 106.273C213.448 106.499 213.585 106.749 213.688 107.02C213.779 107.281 213.825 107.553 213.825 107.836C213.825 108.119 213.785 108.396 213.705 108.668C213.614 108.94 213.482 109.189 213.311 109.415C213.14 109.642 212.94 109.834 212.712 109.993C212.472 110.151 212.215 110.27 211.941 110.349C211.667 110.429 211.387 110.463 211.101 110.451C210.816 110.44 210.542 110.383 210.279 110.282C210.017 110.18 209.771 110.038 209.543 109.857C209.326 109.676 209.143 109.466 208.995 109.228C208.846 108.991 208.738 108.73 208.669 108.447C208.612 108.175 208.583 108.039 208.583 108.039C208.583 108.039 208.418 105.928 208.087 101.704C207.767 97.4803 207.39 92.5489 206.956 86.9098C206.522 81.2707 206.054 77.0413 205.552 74.2218C205.061 71.4022 204.809 69.8622 204.798 69.6018C204.798 69.364 204.827 69.1149 204.884 68.8544C204.941 68.6053 205.026 68.3618 205.141 68.1241C205.255 67.8863 205.397 67.6711 205.569 67.4786C205.74 67.2748 205.934 67.0993 206.151 66.9521C206.357 66.8049 206.585 66.6803 206.836 66.5784C207.076 66.4765 207.327 66.4085 207.59 66.3746C207.841 66.3406 208.092 66.3349 208.344 66.3576C208.606 66.3802 208.863 66.4368 209.114 66.5274C209.366 66.618 209.6 66.7313 209.817 66.8671C210.034 67.0143 210.234 67.1842 210.416 67.3767C210.588 67.5692 210.736 67.7787 210.862 68.0052C210.987 68.2316 211.084 68.4694 211.153 68.7185C211.221 68.979 211.256 69.1092 211.256 69.1092Z" fill="#1E1E1E"/>
</svg>
