<svg width="64" height="64" viewBox="0 0 64 64" fill="none" xmlns="http://www.w3.org/2000/svg">
<path d="M32 5.33331C17.28 5.33331 5.33334 17.28 5.33334 32C5.33334 46.72 17.28 58.6666 32 58.6666C46.72 58.6666 58.6667 46.72 58.6667 32C58.6667 17.28 46.72 5.33331 32 5.33331ZM32 16C37.1467 16 41.3333 20.1866 41.3333 25.3333C41.3333 30.48 37.1467 34.6666 32 34.6666C26.8533 34.6666 22.6667 30.48 22.6667 25.3333C22.6667 20.1866 26.8533 16 32 16ZM32 53.3333C26.5867 53.3333 20.1867 51.1466 15.6267 45.6533C20.2982 41.9899 26.0634 39.999 32 39.999C37.9367 39.999 43.7018 41.9899 48.3733 45.6533C43.8133 51.1466 37.4133 53.3333 32 53.3333Z" fill="black"/>
</svg>
